#!OML:ASF E:\emotionWalksFemale\Project 1\Capture day 1\Session 1\Female1.ASF
:FULLY-SPECIFIED
:DEGREES
1352
root 7.72976 15.1562 -37.6488 363.254 2.8643 1.84913
lowerback 6.44303 -0.810499 0.706055
upperback -4.28357 -0.822132 2.58882
thorax -8.10305 -0.358142 2.44515
lowerneck -8.06011 0.362255 -0.414342
upperneck 15.2718 1.53708 -6.14798
head 5.99793 0.263704 -1.75919
rclavicle 3.42904e-015 -2.38542e-014
rhumerus -53.6197 -8.01236 -80.025
rradius 37.0066
rwrist -21.1459
rhand 3.42596 -53.4636
rfingers 7.12502
rthumb 28.8675 278.75
lclavicle 3.42904e-015 -2.38542e-014
lhumerus -65.3669 13.6791 66.4981
lradius 26.0617
lwrist -40.4885
lhand 27.0326 -30.7152
lfingers 7.12502
lthumb 51.0205 -10.0452
rfemur -8.48958 16.2652 28.2285
rtibia 33.1147
rfoot -22.406 -23.7078
rtoes -1.92463
lfemur -11.8158 -20.0055 -16.3792
ltibia 32.8536
lfoot -27.8399 16.6467
ltoes -28.9909
1353
root 7.73435 15.1552 -37.635 362.972 2.77448 2.01989
lowerback 6.05171 -0.710912 0.741814
upperback -4.22551 -0.706702 2.43228
thorax -7.81758 -0.310762 2.23403
lowerneck -7.83684 0.193362 -0.490527
upperneck 15.212 1.28545 -6.0062
head 5.93106 0.152916 -1.71966
rclavicle 2.68359e-015 7.15625e-015
rhumerus -53.6319 -7.11354 -80.511
rradius 36.8925
rwrist -21.507
rhand 1.63434 -53.0241
rfingers 7.12502
rthumb 27.1548 278.91
lclavicle 2.68359e-015 7.15625e-015
lhumerus -65.5609 13.9823 65.8209
lradius 26.2567
lwrist -38.8219
lhand 30.4663 -31.0898
lfingers 7.12502
lthumb 54.1257 -12.3371
rfemur -8.13481 16.0537 28.0814
rtibia 33.2
rfoot -22.58 -23.3724
rtoes -0.655547
lfemur -11.3665 -19.6291 -16.7237
ltibia 32.7679
lfoot -27.8372 16.2882
ltoes -28.0811
1354
root 7.73619 15.1571 -37.6232 362.721 2.70239 2.2572
lowerback 5.83719 -0.59183 0.723314
upperback -4.23559 -0.566726 2.24089
thorax -7.70867 -0.247675 2.02082
lowerneck -7.65403 0.0382302 -0.677584
upperneck 15.2061 1.04658 -5.70164
head 5.88823 0.0519007 -1.6094
rclavicle 9.93923e-015 1.51076e-014
rhumerus -53.8431 -6.28963 -80.8609
rradius 36.9889
rwrist -21.2074
rhand 0.668288 -52.675
rfingers 7.12502
rthumb 26.2303 279.118
lclavicle 9.93923e-015 1.51076e-014
lhumerus -65.6696 14.0479 65.4168
lradius 26.7018
lwrist -36.5652
lhand 34.8269 -30.7951
lfingers 7.12502
lthumb 57.9863 -15.0614
rfemur -7.81818 15.9051 27.8692
rtibia 33.2932
rfoot -22.6346 -23.287
rtoes -2.67722
lfemur -10.9606 -19.4163 -17.1174
ltibia 32.6278
lfoot -27.7853 15.9189
ltoes -26.1635
1355
root 7.73723 15.1565 -37.6166 362.393 2.65213 2.59334
lowerback 5.49273 -0.451014 0.470973
upperback -4.01617 -0.419606 2.13251
thorax -7.2757 -0.168496 2.02099
lowerneck -7.58018 -0.1526 -0.99587
upperneck 14.9795 0.779565 -5.46841
head 5.79619 -0.0724278 -1.50037
rclavicle -6.11263e-015 -4.77083e-015
rhumerus -53.6714 -5.56732 -80.8592
rradius 36.8632
rwrist -19.8959
rhand 0.73525 -48.6451
rfingers 7.12502
rthumb 26.2944 283.157
lclavicle -6.11263e-015 -4.77083e-015
lhumerus -65.3585 14.2807 65.26
lradius 27.0667
lwrist -34.0802
lhand 34.858 -30.0765
lfingers 7.12502
lthumb 58.0134 -14.3671
rfemur -7.42304 15.7684 27.5766
rtibia 33.3984
rfoot -22.6918 -23.2112
rtoes -4.72431
lfemur -10.5048 -19.2374 -17.632
ltibia 32.4757
lfoot -27.5039 15.9304
ltoes -26.2928
1356
root 7.73801 15.1546 -37.6132 362.014 2.67148 2.90393
lowerback 5.98651 -0.363836 0.234322
upperback -4.21366 -0.316697 2.0691
thorax -7.77708 -0.103632 2.08553
lowerneck -7.43564 -0.330265 -1.41022
upperneck 15.087 0.564352 -5.2734
head 5.79989 -0.186455 -1.38617
rclavicle -3.08116e-015 -6.36111e-015
rhumerus -54.1892 -4.59119 -80.6952
rradius 37.0459
rwrist -17.7381
rhand 2.13712 -40.817
rfingers 7.12502
rthumb 27.6357 291.193
lclavicle -3.08116e-015 -6.36111e-015
lhumerus -65.5334 14.4403 64.9184
lradius 27.3583
lwrist -31.7568
lhand 35.6633 -29.6598
lfingers 7.12502
lthumb 58.7135 -14.5964
rfemur -6.97591 15.6811 27.3399
rtibia 33.4817
rfoot -22.9629 -23.1697
rtoes -4.52189
lfemur -10.0123 -19.0509 -18.0935
ltibia 32.3389
lfoot -27.2116 15.8038
ltoes -26.6488
1357
root 7.73913 15.1519 -37.611 361.667 2.73276 3.14245
lowerback 6.06599 -0.265135 0.104867
upperback -4.17871 -0.200851 2.00241
thorax -7.78946 -0.0419412 2.07389
lowerneck -7.35647 -0.531848 -1.89461
upperneck 14.9734 0.296278 -4.95039
head 5.74591 -0.316787 -1.2223
rclavicle 8.15017e-015 6.36111e-015
rhumerus -54.3912 -3.68967 -80.5665
rradius 37.4949
rwrist -14.7948
rhand -20.0786 -79.9378
rfingers 7.12502
rthumb 6.26391 469.825
lclavicle 8.15017e-015 6.36111e-015
lhumerus -65.1826 14.7867 64.6562
lradius 27.6382
lwrist -29.7943
lhand 34.4434 -29.4219
lfingers 7.12502
lthumb 57.6512 -13.3916
rfemur -6.57356 15.5622 27.1836
rtibia 33.5207
rfoot -23.0769 -23.2391
rtoes -4.60879
lfemur -9.62549 -18.7954 -18.4344
ltibia 32.3067
lfoot -26.9099 15.4754
ltoes -26.4241
1358
root 7.74053 15.1508 -37.6107 361.404 2.78688 3.20858
lowerback 6.20415 -0.123014 0.246639
upperback -4.21392 -0.00402532 1.86319
thorax -7.91432 0.0433761 1.82389
lowerneck -7.32887 -0.755704 -2.04282
upperneck 14.9167 -0.0260144 -4.73366
head 5.7184 -0.46456 -1.15183
rclavicle -3.08116e-015 1.27222e-014
rhumerus -54.6438 -2.90274 -80.6748
rradius 37.8225
rwrist -12.3489
rhand -7.80175 -34.131
rfingers 7.12502
rthumb 18.0996 296.691
lclavicle -3.08116e-015 1.27222e-014
lhumerus -64.7197 14.6882 64.6022
lradius 28.0732
lwrist -27.7423
lhand 34.0274 -28.7651
lfingers 7.12502
lthumb 57.2867 -12.4205
rfemur -6.26075 15.3323 27.1581
rtibia 33.4661
rfoot -23.0525 -23.108
rtoes -4.80853
lfemur -9.46592 -18.4905 -18.5437
ltibia 32.4098
lfoot -26.4478 15.5423
ltoes -28.1176
1359
root 7.74338 15.1467 -37.6159 361.144 2.85252 3.00013
lowerback 6.44735 -0.00599143 0.606647
upperback -4.40668 0.194919 1.84227
thorax -8.26932 0.121964 1.57705
lowerneck -6.73563 -0.921131 -2.06779
upperneck 14.6615 -0.286197 -4.71297
head 5.53237 -0.577799 -1.1533
rclavicle 6.26172e-015 -1.82882e-014
rhumerus -55.1883 -1.89138 -80.8925
rradius 38.0804
rwrist -11.498
rhand 4.73541 -52.9677
rfingers 7.12502
rthumb 30.1176 279.466
lclavicle 6.26172e-015 -1.82882e-014
lhumerus -64.5087 14.3952 64.6133
lradius 28.5958
lwrist -25.5663
lhand 31.4515 -28.8569
lfingers 7.12502
lthumb 55.007 -10.7233
rfemur -5.95938 15.0586 27.4116
rtibia 33.3461
rfoot -23.0505 -22.9601
rtoes -4.8933
lfemur -9.42981 -18.1956 -18.3219
ltibia 32.6438
lfoot -26.1248 15.2307
ltoes -28.9927
1360
root 7.74414 15.1463 -37.6246 361.118 2.68556 2.66691
lowerback 6.28227 0.160959 1.24109
upperback -4.42456 0.472345 1.74728
thorax -8.19263 0.2183 1.08257
lowerneck -6.63365 -1.07543 -2.02406
upperneck 14.3096 -0.53767 -4.60338
head 5.40117 -0.681536 -1.13913
rclavicle -1.19271e-015 -1.19271e-014
rhumerus -55.1578 -1.03181 -81.3566
rradius 38.2016
rwrist -11.4346
rhand 2.76453 -63.2739
rfingers 7.12502
rthumb 28.2355 451.167
lclavicle -1.19271e-015 -1.19271e-014
lhumerus -63.7533 14.4146 64.2513
lradius 28.9959
lwrist -23.4382
lhand 28.1232 -28.7823
lfingers 7.12502
lthumb 52.012 -8.68376
rfemur -5.96674 15.0877 27.7357
rtibia 33.2465
rfoot -22.8353 -22.9514
rtoes -5.45814
lfemur -9.62264 -17.7562 -17.8769
ltibia 32.8885
lfoot -26.0105 14.5776
ltoes -28.6567
1361
root 7.74774 15.142 -37.6355 360.877 2.71227 2.45713
lowerback 6.23793 0.255578 1.7172
upperback -4.29652 0.63712 1.68415
thorax -8.02495 0.270727 0.726116
lowerneck -6.53001 -1.38345 -2.12767
upperneck 13.9798 -0.970356 -4.55106
head 5.27582 -0.886566 -1.13003
rclavicle 3.47873e-015 -1.74931e-014
rhumerus -54.8277 -0.177746 -81.5364
rradius 38.1909
rwrist -10.6008
rhand 2.57832 -53.1677
rfingers 7.12502
rthumb 28.0575 278.91
lclavicle 3.47873e-015 -1.74931e-014
lhumerus -62.8139 14.713 64.0426
lradius 29.2377
lwrist -22.1795
lhand 25.1511 -29.7015
lfingers 7.12502
lthumb 49.2999 -8.11874
rfemur -5.7447 15.036 28.0012
rtibia 33.2214
rfoot -22.6931 -23.0079
rtoes -5.796
lfemur -9.56309 -17.4665 -17.6329
ltibia 33.1001
lfoot -25.9549 14.1023
ltoes -29.2757
1362
root 7.75084 15.148 -37.6445 360.582 2.72581 2.39215
lowerback 6.41895 0.362837 2.01051
upperback -4.28068 0.808358 1.59018
thorax -8.10899 0.334635 0.43916
lowerneck -6.31278 -1.58712 -2.1792
upperneck 13.708 -1.2734 -4.46419
head 5.15128 -1.02339 -1.10897
rclavicle 1.28216e-014 -1.35174e-014
rhumerus -54.6601 0.398573 -81.2787
rradius 38.0043
rwrist -8.94647
rhand 3.45758 -54.1307
rfingers 7.12502
rthumb 28.8977 278.088
lclavicle 1.28216e-014 -1.35174e-014
lhumerus -61.9929 14.7708 64.0873
lradius 29.6196
lwrist -20.9374
lhand 21.8883 -30.1217
lfingers 7.12502
lthumb 46.2899 -7.14883
rfemur -5.44854 15.0146 28.079
rtibia 33.2662
rfoot -23.6183 -22.1834
rtoes -1.85379
lfemur -9.36892 -17.2216 -17.5747
ltibia 33.2825
lfoot -26.1436 13.4585
ltoes -28.278
1363
root 7.75127 15.153 -37.6538 360.385 2.74475 2.32029
lowerback 6.44834 0.47271 2.23946
upperback -4.27089 0.972582 1.49929
thorax -8.10967 0.399231 0.192871
lowerneck -6.01606 -1.7222 -2.23573
upperneck 13.3767 -1.50314 -4.26203
head 4.99728 -1.1155 -1.0446
rclavicle 1.2424e-014 -2.38542e-015
rhumerus -54.3821 0.677724 -80.8731
rradius 37.6211
rwrist -7.59232
rhand 3.51022 -53.3163
rfingers 7.12502
rthumb 28.948 278.911
lclavicle 1.2424e-014 -2.38542e-015
lhumerus -61.1007 14.6385 64.3278
lradius 30.1782
lwrist -19.5854
lhand 18.4513 -30.33
lfingers 7.12502
lthumb 43.0898 -6.11582
rfemur -5.31056 14.9839 28.1434
rtibia 33.3839
rfoot -24.5565 -21.2912
rtoes 2.51522
lfemur -9.3011 -16.8412 -17.457
ltibia 33.4569
lfoot -26.3323 12.7816
ltoes -27.1904
